{"glyphs":{":":{"x_min":0,"x_max":300,"ha":300,"o":"m 200 449 q 200 421 177 401 q 155 380 124 380 q 92 380 72 401 q 51 421 51 455 q 51 485 72 504 q 92 523 127 523 q 158 523 179 502 q 200 480 200 449 z m 224 139 q 224 111 200 89 q 176 67 144 67 q 111 67 89 89 q 66 111 66 143 q 66 174 87 194 q 108 215 141 215 q 179 215 202 195 q 224 174 224 139 z"},"$":{"x_min":0,"x_max":465,"ha":465,"o":"m 442 550 q 442 480 379 480 q 335 480 335 511 q 335 522 342 536 l 342 538 q 342 571 320 591 q 297 612 264 612 q 218 612 178 578 q 140 545 140 512 q 140 490 164 473 q 179 462 233 438 q 339 390 382 346 q 433 294 433 219 q 433 150 384 101 q 334 50 252 40 q 241 -13 229 -66 q 218 -98 184 -98 q 134 -98 134 -53 q 134 -32 148 43 q 17 73 17 175 q 17 212 42 237 q 66 262 101 262 q 122 262 135 249 q 149 236 149 216 q 149 205 130 194 q 111 183 111 172 q 111 154 139 138 q 170 120 212 120 q 265 120 300 149 q 336 177 336 219 q 336 286 205 350 q 104 399 89 411 q 43 446 43 505 q 43 562 87 611 q 133 664 207 684 q 211 758 223 785 q 237 816 274 816 q 296 816 311 802 q 325 789 325 768 q 325 759 320 737 q 313 709 311 695 q 373 683 407 644 q 442 605 442 550 z"},"?":{"x_min":0,"x_max":390,"ha":390,"o":"m 369 518 q 369 446 301 384 q 280 366 259 348 q 230 322 212 290 q 204 275 192 212 q 182 158 142 158 q 97 158 97 217 q 97 265 123 316 q 148 368 188 399 q 237 438 251 454 q 275 482 275 517 q 275 554 246 578 q 217 602 170 602 q 139 602 103 577 q 67 552 54 552 q 39 552 27 565 q 16 578 16 596 q 16 628 61 653 q 108 681 177 681 q 265 681 317 637 q 369 592 369 518 z m 220 52 q 220 24 201 6 q 183 -12 152 -12 q 122 -12 104 5 q 85 23 85 51 q 85 80 104 98 q 124 117 154 117 q 183 117 202 99 q 220 81 220 52 z"},"<":{"x_min":0,"x_max":550,"ha":550,"o":"m 472 552 q 472 531 455 516 q 447 508 413 488 q 313 428 199 326 q 271 257 342 205 q 380 178 418 151 q 449 129 449 104 q 449 64 407 64 q 375 64 282 136 q 100 277 100 323 q 100 358 171 423 q 228 474 305 526 q 404 592 429 592 q 472 592 472 552 z"},"'":{"x_min":0,"x_max":215,"ha":215,"o":"m 152 543 q 152 462 145 436 q 136 404 106 404 q 67 404 67 464 q 67 476 68 499 q 70 523 70 535 q 70 556 67 591 q 64 626 64 641 q 64 689 102 689 q 139 689 148 631 q 152 610 152 543 z"},"=":{"x_min":0,"x_max":550,"ha":550,"o":"m 518 425 q 518 381 452 381 q 443 381 380 385 q 316 390 260 390 q 190 390 130 385 q 70 379 79 379 q 45 379 45 415 q 45 454 101 466 q 144 475 272 475 q 419 475 459 469 q 518 459 518 425 z m 488 207 q 488 169 440 169 q 430 169 337 187 q 243 204 161 204 q 152 204 135 204 q 119 203 111 203 q 54 203 54 245 q 54 288 124 288 q 287 288 413 263 q 488 248 488 207 z"},"a":{"x_min":0,"x_max":550,"ha":550,"o":"m 482 296 q 482 162 443 16 q 423 -57 385 -57 q 345 -57 345 -12 q 345 -2 346 3 q 296 -24 243 -24 q 149 -24 96 29 q 43 83 43 178 q 43 275 100 332 q 157 389 252 389 q 334 389 391 334 q 382 527 248 527 q 218 527 184 509 q 150 491 140 491 q 124 491 110 505 q 97 519 97 536 q 97 565 140 590 q 185 617 248 617 q 482 617 482 296 z m 383 181 q 383 305 266 305 q 138 305 138 182 q 138 58 265 58 q 320 58 352 91 q 383 123 383 181 z"},"L":{"x_min":0,"x_max":726,"ha":726,"o":"m 721 140 q 721 5 639 -60 l 639 -62 q 565 -108 415 -108 q 194 -108 67 -81 q 28 -73 14 -62 q -3 -49 -3 -25 q -3 13 49 13 q 74 13 113 6 q 98 167 98 279 q 98 465 123 671 l 99 669 l 95 669 q 50 669 50 713 q 50 746 78 759 q 104 771 164 771 q 261 771 316 747 q 367 725 367 689 q 367 669 353 655 q 339 640 322 640 q 310 640 280 654 q 248 669 225 672 q 195 472 195 280 q 195 194 214 -6 q 328 -18 396 -18 q 518 -18 589 25 q 609 51 620 126 q 627 175 633 188 q 644 209 672 209 q 721 209 721 140 z"},"3":{"x_min":0,"x_max":460,"ha":460,"o":"m 432 210 q 432 108 364 48 q 296 -11 176 -11 q -5 -11 -5 81 q -5 105 10 121 q 25 137 48 137 q 93 137 95 92 q 131 72 174 72 q 250 72 292 108 q 334 145 334 211 q 334 298 259 341 q 238 353 212 357 q 191 359 170 361 q 117 368 117 409 q 117 452 159 452 q 175 452 239 434 q 302 434 302 513 q 302 592 217 592 q 200 592 170 583 q 140 573 128 573 q 92 573 92 616 q 92 641 129 656 q 166 671 232 671 q 308 671 353 628 q 399 584 399 517 q 399 445 331 393 q 432 329 432 210 z"},";":{"x_min":0,"x_max":300,"ha":300,"o":"m 226 404 q 226 374 202 354 q 178 334 140 334 q 105 334 84 354 q 63 373 63 404 q 63 434 86 454 q 109 473 147 473 q 181 473 203 453 q 226 432 226 404 z m 249 47 q 249 -14 209 -60 q 172 -102 130 -102 q 94 -102 94 -73 q 94 -61 104 -53 q 105 -52 125 -40 q 165 -17 165 18 q 165 36 157 51 q 138 48 122 48 q 46 48 46 106 q 46 134 70 156 q 95 177 130 177 q 186 177 217 142 q 249 108 249 47 z"},"J":{"x_min":0,"x_max":615,"ha":615,"o":"m 633 704 q 633 679 618 664 q 604 648 581 648 q 579 648 561 653 q 538 660 515 664 q 555 482 555 358 q 555 134 471 19 q 387 -97 226 -97 q 118 -97 58 -27 q -2 42 -2 168 q -2 258 52 258 q 79 258 90 240 q 100 221 100 178 q 100 172 100 163 q 99 154 99 152 q 99 -1 234 -1 q 339 -1 396 87 q 452 175 452 342 q 452 505 409 677 q 352 691 304 691 q 266 691 216 679 q 166 667 152 667 q 105 667 105 719 q 105 748 162 767 q 223 787 324 787 q 459 787 579 754 q 633 739 633 704 z"},"V":{"x_min":0,"x_max":725,"ha":725,"o":"m 797 716 q 797 696 784 681 q 771 667 754 667 q 745 667 723 673 q 701 678 688 678 l 685 678 q 587 312 457 53 q 405 -50 388 -75 q 358 -119 326 -119 q 286 -119 270 -89 q 262 -75 244 -2 q 173 285 129 426 q 74 600 25 672 q -5 669 -14 669 l -17 669 q -36 669 -50 682 q -63 694 -63 712 q -63 736 -27 751 q 9 767 71 767 q 89 767 119 763 q 150 760 164 760 q 176 760 197 761 q 218 762 226 762 q 294 762 294 713 q 294 663 220 663 q 196 663 139 669 q 228 482 338 16 q 500 331 581 673 q 539 670 526 670 q 469 670 469 712 q 469 759 547 771 q 572 775 667 775 q 797 775 797 716 z"},"\"":{"x_min":0,"x_max":365,"ha":365,"o":"m 335 637 q 335 543 305 473 q 277 408 246 408 q 216 408 216 436 q 216 442 225 463 q 238 492 244 510 q 254 541 260 618 q 263 661 270 677 q 279 696 300 696 q 335 696 335 637 z m 147 663 q 147 651 142 623 q 136 591 135 575 q 134 542 132 491 q 127 448 104 448 q 68 448 68 528 q 68 697 116 697 q 147 697 147 663 z"},"7":{"x_min":0,"x_max":530,"ha":530,"o":"m 527 575 q 527 554 514 514 q 448 312 314 139 q 251 58 187 6 q 133 -37 110 -37 q 94 -37 81 -24 q 69 -12 69 4 q 69 25 131 89 q 172 130 251 218 q 360 351 417 539 q 337 568 246 568 q 180 568 111 555 q 112 549 112 538 q 112 468 52 468 q 7 468 7 557 q 7 608 46 625 q 121 658 248 658 q 527 658 527 575 z"},"S":{"x_min":0,"x_max":624,"ha":624,"o":"m 611 718 q 611 704 605 672 q 600 640 600 624 l 600 609 q 600 556 593 538 q 583 513 552 513 q 517 513 504 559 q 498 581 497 633 q 430 680 357 680 q 263 680 203 620 q 142 559 142 465 q 142 384 181 348 q 208 323 298 292 q 379 264 409 250 q 460 226 487 194 q 527 146 527 67 q 527 -15 465 -63 q 403 -111 295 -111 q 214 -111 165 -71 l 164 -170 q 164 -219 116 -219 q 67 -219 67 -154 l 67 -83 q 67 58 75 103 q 86 162 124 162 q 154 162 164 138 q 170 124 174 97 q 179 61 182 50 q 198 -14 281 -14 q 425 -14 425 72 q 425 114 394 141 q 369 163 304 186 l 216 218 q 119 253 80 305 q 39 358 39 456 q 39 599 128 688 q 218 777 359 777 q 440 777 512 732 q 525 783 564 783 q 611 783 611 718 z"},"}":{"x_min":0,"x_max":525,"ha":525,"o":"m 503 336 q 503 291 439 291 q 424 291 416 292 q 364 276 354 227 q 351 183 340 68 q 326 -57 280 -110 q 232 -165 132 -165 q 14 -165 14 -108 q 14 -64 59 -64 q 68 -64 94 -73 q 120 -82 139 -82 q 197 -82 224 -37 q 249 4 257 101 q 262 168 267 235 q 278 297 324 329 q 274 360 251 416 q 231 465 225 555 q 224 581 223 607 q 221 638 211 659 q 188 708 139 708 q 123 708 104 703 q 85 698 81 698 q 64 698 52 710 q 40 721 40 737 q 40 795 139 795 q 242 795 288 715 q 311 676 312 621 q 313 579 313 537 q 316 493 326 464 q 343 415 377 393 q 395 381 420 378 q 439 376 458 375 q 503 370 503 336 z"},"Z":{"x_min":0,"x_max":912,"ha":912,"o":"m 939 159 q 939 122 867 60 q 771 -22 646 -67 q 521 -112 389 -112 q 222 -112 112 -47 q 46 -8 46 31 q 46 55 89 94 q 146 142 202 189 q 515 452 623 613 q 524 665 333 665 q 238 665 145 647 q 51 630 51 630 q 5 630 5 679 q 5 711 67 728 q 208 767 344 767 q 523 767 632 725 q 733 685 733 628 q 733 564 594 416 q 445 256 170 34 q 259 -16 389 -16 q 507 -16 615 22 q 721 60 791 125 q 819 153 848 182 q 873 206 890 206 q 909 206 924 191 q 939 177 939 159 z"},"x":{"x_min":0,"x_max":585,"ha":585,"o":"m 583 102 q 583 82 569 66 q 556 51 539 51 q 508 51 286 233 q 217 163 147 92 q 95 41 74 41 q 53 41 38 56 q 22 72 22 92 q 22 117 78 167 q 173 253 215 300 q 76 438 31 547 q 3 563 3 588 q 3 609 18 625 q 32 640 52 640 q 80 640 98 619 q 111 604 132 558 q 171 474 276 372 q 354 460 396 543 q 411 577 426 611 q 440 638 468 638 q 490 638 504 625 q 518 611 518 589 q 518 503 348 305 q 393 266 518 177 q 583 130 583 102 z"},")":{"x_min":0,"x_max":270,"ha":270,"o":"m 217 361 q 217 206 165 59 q 146 7 131 -14 q 112 -39 86 -39 q 50 -39 50 -3 q 50 4 74 70 q 128 217 128 340 q 128 450 98 538 q 82 585 65 632 q 51 673 51 690 q 51 728 88 728 q 115 728 134 697 q 148 675 174 606 q 217 492 217 361 z"},"&":{"x_min":0,"x_max":600,"ha":600,"o":"m 615 396 q 615 365 568 314 q 483 221 356 188 q 354 101 348 64 q 334 -23 293 -23 q 250 -23 250 26 q 250 29 258 77 q 266 127 268 177 q 264 177 257 176 q 250 176 246 176 q 147 176 93 218 q 38 260 38 332 q 38 403 83 448 q 128 492 201 492 q 222 492 240 485 q 223 544 191 612 q 165 667 165 680 q 165 716 200 716 q 252 716 293 604 q 338 483 353 273 q 414 284 461 323 q 490 346 544 410 q 562 432 581 432 q 615 432 615 396 z m 271 257 q 270 345 253 383 q 235 423 193 423 q 161 423 142 403 q 122 383 122 350 q 122 308 154 281 q 185 254 238 254 q 254 254 271 257 z"},"_":{"x_min":0,"x_max":500,"ha":500,"o":"m 528 -153 q 528 -185 467 -193 q 425 -199 271 -199 q 50 -199 -15 -184 q -43 -177 -43 -153 q -43 -128 -17 -121 q -4 -117 30 -117 q 51 -117 142 -121 q 233 -124 303 -124 q 354 -124 412 -121 q 471 -118 480 -118 q 528 -118 528 -153 z"},"v":{"x_min":0,"x_max":534,"ha":534,"o":"m 499 613 q 499 573 478 488 q 455 395 443 358 q 409 250 353 136 q 291 10 247 10 q 219 10 204 64 q 184 140 164 216 q 95 435 17 577 q 7 594 -3 611 q -13 628 -13 641 q -13 685 31 685 q 80 685 140 557 q 196 434 272 172 q 354 332 397 582 q 409 648 412 657 q 422 683 450 683 q 499 683 499 613 z"},"O":{"x_min":0,"x_max":892,"ha":892,"o":"m 851 313 q 851 106 739 -9 q 627 -125 431 -125 q 258 -125 148 -6 q 40 111 40 307 q 40 514 135 642 q 238 780 433 780 q 629 780 740 657 q 851 535 851 313 z m 748 310 q 748 490 667 586 q 585 681 435 681 q 292 681 218 588 q 144 495 144 316 q 144 159 227 65 q 309 -29 441 -29 q 582 -29 664 60 q 748 151 748 310 z"},"(":{"x_min":0,"x_max":305,"ha":305,"o":"m 311 689 q 311 673 293 650 q 270 624 246 597 q 133 463 133 267 q 133 150 197 55 q 211 35 226 15 q 239 -3 239 -16 q 239 -53 195 -53 q 175 -53 154 -31 q 42 85 42 272 q 42 423 102 533 q 152 624 199 676 q 243 723 269 723 q 311 723 311 689 z"},"C":{"x_min":0,"x_max":842,"ha":842,"o":"m 798 75 q 798 28 731 -26 q 619 -116 445 -116 q 257 -116 155 -3 q 52 109 52 315 q 52 513 156 637 q 268 771 455 771 q 614 771 716 688 q 754 657 754 631 q 754 611 739 596 q 724 581 704 581 q 691 581 668 598 q 562 674 453 674 q 317 674 236 578 q 155 481 155 316 q 155 -17 445 -17 q 610 -17 681 63 q 697 84 713 105 q 729 124 749 124 q 770 124 784 110 q 798 96 798 75 z"},"W":{"x_min":0,"x_max":953,"ha":953,"o":"m 1003 759 q 1003 741 989 727 q 976 712 959 712 q 950 712 940 715 q 931 718 925 720 q 924 720 913 725 q 881 173 762 -81 q 731 -147 688 -147 q 567 -147 508 330 q 430 99 380 5 q 323 -101 268 -101 q 230 -101 197 -55 q 165 -11 128 89 q 54 289 54 690 l 54 725 q 44 724 28 721 q 15 718 9 718 q -40 718 -40 768 q -40 827 116 827 q 189 827 233 809 q 277 791 277 763 q 277 711 230 711 q 218 711 194 718 q 168 726 152 727 l 150 605 q 150 241 271 12 q 346 116 442 429 q 459 485 476 566 q 490 634 499 652 q 512 682 537 682 q 573 682 583 648 q 591 625 591 549 q 591 537 590 520 q 590 503 590 499 q 590 202 687 -19 q 790 243 817 735 q 810 734 792 730 q 777 727 769 727 q 721 727 721 777 q 721 834 852 834 q 918 834 962 811 q 1003 789 1003 759 z"},"A":{"x_min":0,"x_max":895,"ha":895,"o":"m 875 -61 q 875 -109 829 -109 q 797 -109 758 -49 q 730 -4 666 128 q 479 131 244 215 q 57 19 -11 19 q -29 19 -42 32 q -55 45 -55 63 q -55 83 -23 109 q 10 134 42 160 q 97 204 147 255 q 63 288 63 323 q 63 343 76 358 q 89 372 108 372 q 123 372 152 358 q 204 335 214 331 q 411 589 435 708 q 442 749 449 790 q 459 820 495 820 q 525 820 535 795 q 541 780 545 750 q 549 714 553 699 q 600 510 733 224 q 755 225 776 227 q 796 228 796 228 q 850 228 850 179 q 850 129 794 129 l 780 129 q 799 90 846 9 q 875 -42 875 -61 z m 620 225 q 542 396 484 586 q 414 428 309 294 q 461 238 620 225 z"},"f":{"x_min":0,"x_max":490,"ha":490,"o":"m 540 643 q 540 626 527 612 q 514 598 497 598 q 493 598 444 621 q 395 643 342 643 q 259 643 226 575 q 210 543 207 479 q 205 410 203 342 q 336 331 378 320 q 435 306 435 272 q 435 253 425 240 q 415 228 402 228 q 394 228 334 238 q 265 250 202 255 q 195 35 187 -16 q 174 -104 130 -104 q 83 -104 83 -50 q 83 -50 93 50 q 104 154 106 260 q 46 261 27 268 q 3 277 3 307 q 3 349 48 349 l 50 349 l 107 347 q 109 412 110 477 q 113 538 123 569 q 174 733 337 733 q 427 733 486 704 q 540 678 540 643 z"},"Q":{"x_min":0,"x_max":874,"ha":874,"o":"m 972 -63 q 972 -155 764 -170 l 763 -169 l 760 -169 q 696 -169 612 -142 q 569 -128 445 -79 q 402 -62 361 -62 q 292 -62 228 -74 q 164 -86 166 -86 q 119 -86 119 -41 q 119 -7 161 9 q 182 17 286 34 q 390 51 474 82 q 711 170 711 401 q 711 508 645 586 q 567 678 447 678 q 297 678 214 595 q 132 511 132 358 q 132 246 197 200 q 214 188 237 183 q 257 180 276 177 q 325 167 325 129 q 325 78 253 78 q 211 78 167 99 q 123 120 92 155 q 32 224 32 346 q 32 544 145 660 q 258 775 447 775 q 583 775 674 704 q 813 595 813 395 q 813 107 512 -3 q 675 -73 758 -73 q 829 -73 873 -51 l 873 -41 q 903 -3 925 -3 q 933 -3 941 -8 q 972 -26 972 -63 z"},"w":{"x_min":0,"x_max":791,"ha":791,"o":"m 752 317 q 752 165 698 82 q 646 1 553 1 q 440 1 391 117 q 333 28 263 28 q 170 28 107 129 q 40 237 40 414 q 40 657 112 657 q 131 657 146 643 q 160 628 160 609 q 160 612 150 545 q 139 479 139 406 q 139 286 178 209 q 214 139 265 139 q 301 139 326 179 q 352 220 352 284 q 352 319 345 379 q 339 439 339 464 q 339 530 393 530 q 448 530 448 459 q 448 448 448 422 q 447 396 447 381 q 447 242 453 206 q 472 95 547 95 q 596 95 625 146 q 654 196 654 288 q 654 392 632 496 q 610 601 610 605 q 610 644 651 644 q 697 644 724 561 q 752 474 752 317 z"},"-":{"x_min":0,"x_max":290,"ha":290,"o":"m 271 372 q 271 322 216 322 q 214 322 199 323 q 185 324 172 324 q 156 324 119 321 q 82 317 61 317 q 17 317 17 362 q 17 405 85 417 q 108 420 192 420 q 271 420 271 372 z"},"E":{"x_min":0,"x_max":715,"ha":715,"o":"m 701 46 q 701 4 602 -33 q 506 -69 375 -81 q 296 -88 142 -88 q 87 -88 68 -84 q 19 -75 19 -42 q 19 -22 32 -8 q 46 6 65 6 l 110 6 q 134 125 134 507 q 134 523 132 685 q 116 685 99 685 q 82 684 81 684 q 30 684 30 729 q 30 759 57 771 q 82 781 142 781 q 396 781 547 735 q 648 704 648 663 q 648 646 635 632 q 622 618 607 618 q 598 618 569 630 q 533 645 508 651 q 441 667 230 681 q 230 593 228 401 q 290 397 346 397 q 386 397 428 400 q 471 403 474 403 q 527 403 527 358 q 527 323 482 313 q 452 307 346 307 q 288 307 226 310 q 221 86 208 6 l 228 6 q 424 6 523 35 q 550 43 599 68 q 639 88 657 88 q 675 88 688 75 q 701 62 701 46 z"},"s":{"x_min":0,"x_max":455,"ha":455,"o":"m 433 529 q 433 480 384 480 q 367 480 357 492 q 350 503 343 515 q 312 554 262 554 q 176 554 176 456 q 176 422 191 397 q 205 376 239 350 q 316 291 335 269 q 375 223 375 163 q 375 85 324 36 q 273 -13 192 -13 q 114 -13 64 27 q 16 66 16 126 q 16 186 68 186 q 111 186 113 119 q 148 77 192 77 q 229 77 252 99 q 275 122 275 155 q 275 185 247 212 q 246 213 175 269 q 76 347 76 452 q 76 538 129 590 q 181 643 266 643 q 336 643 386 606 q 433 572 433 529 z"},">":{"x_min":0,"x_max":550,"ha":550,"o":"m 478 354 q 478 301 360 196 q 278 123 204 81 q 140 45 109 45 q 93 45 81 58 q 70 70 70 87 q 70 108 94 124 q 126 142 158 159 q 272 222 374 342 q 308 398 223 441 q 162 469 101 497 q 58 519 58 548 q 58 566 71 579 q 84 592 103 592 q 113 592 127 587 q 286 531 405 445 q 478 392 478 354 z"},"l":{"x_min":0,"x_max":268,"ha":268,"o":"m 194 6 q 194 -27 189 -40 q 181 -61 153 -61 q 106 -61 98 14 q 84 141 84 362 q 84 608 91 665 q 99 727 140 727 q 189 727 189 668 q 189 653 184 552 q 178 450 178 364 q 178 289 186 169 q 194 50 194 6 z"},"8":{"x_min":0,"x_max":530,"ha":530,"o":"m 490 476 q 490 385 398 342 q 488 291 488 200 q 488 107 422 49 q 354 -11 242 -11 q 145 -11 84 42 q 24 96 24 182 q 24 294 122 345 q 53 402 53 490 q 53 567 113 620 q 173 672 267 672 q 366 672 428 617 q 490 562 490 476 z m 387 470 q 387 523 354 556 q 320 589 266 589 q 216 589 185 560 q 155 531 155 484 q 155 437 187 406 q 219 375 268 375 q 322 375 355 401 q 387 427 387 470 z m 382 191 q 382 241 347 272 q 312 303 255 303 q 195 303 160 271 q 124 239 124 187 q 124 136 156 105 q 188 75 243 75 q 308 75 346 107 q 382 139 382 191 z"},"\\":{"x_min":0,"x_max":400,"ha":400,"o":"m 382 -2 q 382 -55 336 -55 q 309 -55 296 -25 q 295 -22 256 122 q 236 195 181 340 q 136 458 64 618 q 17 725 17 743 q 17 784 56 784 q 86 784 109 744 q 117 730 164 624 q 271 379 331 205 q 382 53 382 -2 z"},"e":{"x_min":0,"x_max":559,"ha":559,"o":"m 537 417 q 537 366 502 342 q 486 331 403 314 q 292 291 214 291 q 178 291 128 296 q 128 112 268 112 q 307 112 338 134 q 354 145 394 186 q 409 201 425 201 q 445 201 460 186 q 475 170 475 148 q 475 129 461 114 q 377 22 264 22 q 31 22 31 292 q 31 431 105 532 q 189 647 314 647 q 411 647 474 582 q 537 517 537 417 z m 440 411 q 437 479 405 519 q 372 558 323 558 q 260 558 211 513 q 162 467 137 383 q 172 379 211 379 q 306 379 440 411 z"},"b":{"x_min":0,"x_max":609,"ha":609,"o":"m 577 312 q 577 162 501 76 q 425 -10 293 -10 q 217 -10 164 37 q 164 -4 157 -21 q 146 -52 114 -52 q 68 -52 68 6 q 68 5 70 58 q 73 119 75 187 q 77 285 77 396 q 77 562 67 643 q 63 673 55 711 q 49 743 49 751 q 49 766 63 778 q 77 790 95 790 q 135 790 149 730 q 160 688 168 539 q 246 596 334 596 q 446 596 512 521 q 577 446 577 312 z m 480 309 q 480 403 437 457 q 394 511 322 511 q 218 511 170 432 l 170 357 q 170 304 169 242 q 169 181 169 174 l 169 173 q 209 81 300 81 q 379 81 429 144 q 480 206 480 309 z"},"%":{"x_min":0,"x_max":780,"ha":780,"o":"m 763 165 q 763 87 716 39 q 669 -9 595 -9 q 540 -9 504 18 q 468 45 460 92 q 412 104 412 168 q 412 363 565 363 q 655 363 709 309 q 763 255 763 165 z m 674 164 q 674 221 641 254 q 608 288 557 288 q 495 288 495 190 q 495 180 498 156 q 524 149 539 131 q 546 122 560 93 q 573 66 595 66 q 674 66 674 164 z m 567 631 q 567 596 524 504 q 470 387 377 261 q 230 61 157 61 q 124 61 113 114 q 355 309 444 540 q 477 624 478 627 q 495 657 530 657 q 567 657 567 631 z m 355 477 q 355 397 305 345 q 255 293 180 293 q 106 293 63 339 q 19 386 19 465 q 19 555 61 603 q 103 651 181 651 q 264 651 309 605 q 355 560 355 477 z m 264 474 q 264 572 158 574 q 110 544 110 473 q 110 420 133 389 q 156 358 192 358 q 221 358 243 391 q 264 425 264 474 z"},"m":{"x_min":0,"x_max":815,"ha":815,"o":"m 750 340 q 750 -34 661 -34 q 627 -34 627 9 q 627 9 644 120 q 660 231 660 342 q 660 526 573 526 q 497 526 473 433 q 455 362 455 153 q 455 121 460 82 q 465 43 465 36 q 465 -12 419 -12 q 364 -12 364 164 q 364 238 369 319 q 375 400 375 406 q 375 478 299 478 q 228 478 195 414 q 164 352 164 218 q 164 131 169 57 q 174 -18 174 -6 q 174 -24 160 -37 q 147 -49 126 -49 q 83 -49 72 34 q 69 58 69 158 q 69 368 103 558 q 114 621 125 641 q 139 666 168 666 q 214 666 214 617 q 214 617 192 507 q 234 566 312 566 q 375 566 410 514 q 472 616 585 616 q 750 616 750 340 z"},"#":{"x_min":0,"x_max":680,"ha":680,"o":"m 676 471 q 676 430 595 430 l 558 430 q 521 430 496 429 l 444 291 q 533 289 558 283 q 594 275 594 245 q 594 209 545 209 q 541 209 505 212 q 462 217 421 219 q 397 147 373 75 q 354 27 328 27 q 292 27 292 64 q 292 67 344 215 q 272 209 200 209 q 178 144 156 78 q 140 33 116 33 q 81 33 81 77 q 81 102 122 208 q 43 210 25 214 q -5 221 -5 248 q -5 284 45 284 q 45 284 78 282 q 114 281 151 280 q 164 311 214 426 q 188 425 158 424 q 132 423 128 423 q 73 423 73 457 q 73 488 114 496 q 129 498 243 501 q 266 563 289 626 q 308 670 335 670 q 366 670 366 641 q 366 617 323 502 l 446 502 q 492 613 500 629 q 523 673 551 673 q 582 673 582 641 q 582 628 563 589 q 537 536 525 501 l 538 501 q 573 501 605 504 q 638 507 636 507 q 676 507 676 471 z m 421 430 l 293 430 l 228 280 q 307 282 367 287 z"},",":{"x_min":0,"x_max":300,"ha":300,"o":"m 235 96 q 235 26 202 -27 q 173 -73 144 -73 q 112 -73 112 -42 q 112 -31 135 9 q 158 48 158 84 q 158 86 158 90 q 157 94 157 97 q 139 90 121 90 q 64 90 64 156 q 64 222 140 222 q 182 222 208 188 q 235 154 235 96 z"},"n":{"x_min":0,"x_max":597,"ha":597,"o":"m 538 332 q 538 216 500 101 q 477 30 442 30 q 423 30 410 41 q 397 53 397 69 q 397 73 420 158 q 444 243 444 326 q 444 516 325 516 q 257 516 214 466 q 170 414 170 329 q 170 282 183 197 q 197 112 197 76 q 197 -8 149 -8 q 125 -8 115 3 q 108 11 103 37 q 103 67 91 212 q 71 414 71 499 q 71 647 128 647 q 146 647 160 635 q 173 624 173 609 q 173 598 167 568 q 161 539 161 518 l 161 507 q 233 605 337 605 q 432 605 485 534 q 538 464 538 332 z"},"h":{"x_min":0,"x_max":630,"ha":630,"o":"m 561 279 q 561 139 534 55 q 509 -25 470 -25 q 448 -25 433 -11 q 418 2 418 19 q 418 19 441 105 q 464 190 464 279 q 464 411 434 471 q 402 533 332 533 q 295 533 256 515 q 218 497 197 471 q 171 438 171 372 l 171 341 q 171 216 180 99 q 190 -18 190 -10 q 190 -58 145 -58 q 119 -58 108 -42 q 99 -28 93 13 q 76 127 76 316 q 76 481 113 695 q 121 741 128 755 q 140 776 165 776 q 184 776 196 762 q 209 749 209 727 q 209 728 184 563 q 249 623 341 623 q 561 623 561 279 z"},"z":{"x_min":0,"x_max":516,"ha":516,"o":"m 543 62 q 543 3 372 3 q 233 3 72 79 q 59 61 41 61 q 23 61 11 75 q -2 89 -2 110 q -2 146 70 244 q 231 463 367 576 q 232 599 132 599 l 91 599 q 17 599 17 645 q 17 693 98 693 q 231 693 367 669 q 511 644 511 587 q 511 570 495 557 q 474 542 452 527 q 313 431 116 158 q 234 95 372 95 q 408 95 448 102 q 487 108 490 108 q 543 108 543 62 z"},"B":{"x_min":0,"x_max":698,"ha":698,"o":"m 655 190 q 655 62 543 -22 q 450 -92 323 -92 q 260 -92 179 -69 q 170 -116 131 -116 q 101 -116 89 -91 q 78 -68 78 -13 q 78 101 109 498 l 113 553 q 120 643 129 668 q 142 705 177 705 q 221 705 221 646 q 221 663 204 471 q 186 265 180 31 q 264 5 330 5 q 428 5 491 59 q 551 112 551 190 q 551 343 340 343 q 333 343 318 342 q 303 342 295 342 q 250 342 250 383 q 250 413 275 423 q 290 429 318 432 q 352 435 365 438 q 407 448 432 486 q 458 523 458 575 q 458 647 399 687 q 340 727 230 727 q 155 727 68 691 q 47 681 25 671 q 0 661 -18 661 q -37 661 -50 673 q -62 686 -62 702 q -62 729 -14 757 q 97 822 252 822 q 396 822 479 757 q 562 692 562 585 q 562 485 488 417 q 566 393 611 332 q 655 271 655 190 z"},"K":{"x_min":0,"x_max":817,"ha":817,"o":"m 811 -78 q 811 -98 797 -112 q 782 -126 761 -126 q 736 -126 721 -108 q 707 -91 667 -28 q 626 38 593 79 q 456 248 308 318 q 250 279 216 259 q 199 47 174 -42 q 146 -141 97 -141 q 79 -141 68 -128 q 56 -116 56 -97 q 56 -83 63 -58 q 75 -18 76 -11 q 118 175 118 398 q 118 510 108 623 q 97 736 97 735 q 97 790 147 790 q 198 790 210 690 q 215 646 219 373 q 450 528 590 699 q 641 761 642 763 q 666 787 690 787 q 731 787 731 746 q 731 645 400 382 q 530 306 633 193 q 718 99 769 16 q 811 -53 811 -78 z"},"R":{"x_min":0,"x_max":732,"ha":732,"o":"m 879 -17 q 879 -54 840 -88 l 840 -87 q 803 -119 738 -119 q 654 -119 613 -90 q 601 -81 583 -60 q 553 -26 549 -22 q 394 142 336 170 q 311 179 286 189 q 261 199 261 226 q 261 272 339 278 q 422 285 475 345 q 527 405 527 493 q 527 692 274 692 l 266 692 q 203 434 203 137 q 203 86 206 29 q 209 -27 209 -32 q 209 -100 162 -100 q 124 -100 112 -54 q 103 -17 103 98 q 103 451 164 682 q -16 652 -35 652 q -105 652 -105 702 q -105 733 -79 745 q -64 751 -41 752 q -21 753 0 754 q 15 755 126 773 q 208 787 268 787 q 631 787 631 499 q 631 408 581 330 q 530 253 440 209 q 511 155 579 83 q 660 -1 662 -3 q 687 -25 744 -25 q 771 -25 779 -17 q 794 0 810 16 q 826 31 841 31 q 856 31 868 17 q 879 3 879 -17 z"},"T":{"x_min":0,"x_max":732,"ha":732,"o":"m 770 634 q 770 615 756 599 q 741 584 724 584 q 712 584 695 592 q 672 604 668 605 q 604 625 421 636 q 427 411 427 305 q 427 99 417 -46 q 414 -93 402 -112 q 390 -133 362 -133 q 315 -133 315 -70 q 315 -67 323 61 q 330 190 330 316 q 330 385 325 637 q 146 635 71 594 q 62 496 11 496 q -30 496 -30 557 q -30 655 32 685 q 137 735 356 735 q 770 735 770 634 z"},"P":{"x_min":0,"x_max":701,"ha":701,"o":"m 677 538 q 677 406 606 325 q 535 244 422 244 q 354 244 307 269 q 263 292 263 322 l 263 324 q 263 345 275 359 q 288 374 305 374 q 313 374 352 357 q 391 341 423 341 q 489 341 533 394 q 576 447 576 530 q 576 615 510 667 q 444 719 337 719 q 306 719 248 712 q 257 572 257 496 q 257 332 250 203 q 242 50 213 -65 q 203 -106 169 -106 q 117 -106 117 -36 q 117 -44 146 187 q 156 267 156 394 q 156 564 148 683 q 114 666 72 625 q 41 595 23 595 q 3 595 -12 610 q -27 625 -27 644 q -27 666 14 705 q 131 817 324 817 q 486 817 582 741 q 677 666 677 538 z"},"|":{"x_min":0,"x_max":500,"ha":500,"o":"m 296 -35 q 296 -49 295 -77 q 295 -106 295 -120 l 295 -147 q 295 -198 291 -213 q 282 -251 248 -251 q 204 -251 204 -192 q 204 -189 206 -152 q 207 -115 207 -81 q 207 38 201 238 q 195 438 195 518 q 195 567 202 782 q 204 846 246 846 q 274 846 285 827 q 292 813 292 781 q 292 774 288 682 q 284 591 284 505 q 284 377 290 197 q 296 17 296 -35 z"},"t":{"x_min":0,"x_max":470,"ha":470,"o":"m 463 455 q 463 438 452 426 q 441 414 427 414 q 419 414 371 433 q 322 452 276 452 q 261 452 245 450 q 227 371 227 304 q 227 219 256 173 q 285 127 336 127 q 352 127 377 137 q 403 147 414 147 q 453 147 453 101 q 453 71 421 53 q 389 34 333 34 q 126 34 126 310 q 126 368 140 438 q 126 436 81 427 q 51 421 37 421 q -15 421 -15 461 q -15 516 165 532 q 202 650 256 650 q 272 650 284 638 q 296 626 296 609 q 296 596 289 577 q 281 558 274 538 q 463 532 463 455 z"},"M":{"x_min":0,"x_max":1066,"ha":1066,"o":"m 969 248 q 969 60 952 -59 q 942 -129 898 -129 q 849 -129 849 -75 q 849 -73 855 -21 q 862 40 866 103 q 872 195 872 297 q 872 469 843 672 q 725 555 635 307 q 617 255 599 204 q 581 166 550 166 q 520 166 505 196 q 500 207 477 283 q 417 485 251 664 q 197 488 197 184 q 197 140 200 76 q 204 11 204 -10 q 204 -84 155 -84 q 116 -84 105 -37 q 98 -3 98 119 q 98 449 146 664 q 163 737 180 767 q 198 798 228 798 q 260 798 301 754 q 386 663 433 596 q 507 491 556 362 q 644 576 742 707 q 829 823 880 823 q 901 823 913 805 q 922 790 932 746 q 969 589 969 248 z"},"g":{"x_min":0,"x_max":527,"ha":527,"o":"m 534 649 q 534 611 491 611 q 485 611 466 613 q 442 615 426 616 q 485 551 485 462 q 485 375 424 319 q 362 263 264 263 q 242 263 194 268 q 152 237 128 194 q 223 205 254 205 q 454 205 454 67 q 454 -17 379 -64 q 303 -112 168 -112 q 83 -112 32 -79 q -15 -48 -15 -2 q -15 15 -1 27 q 13 39 32 39 q 45 39 58 28 q 70 15 82 2 q 106 -22 173 -22 q 259 -22 307 0 q 353 22 353 60 q 353 115 225 115 q 195 115 145 110 q 96 104 76 104 q 29 104 29 137 q 29 184 120 295 q 45 348 45 448 q 45 541 111 607 q 178 673 274 673 q 294 673 321 668 q 337 692 425 692 q 534 692 534 649 z m 392 471 q 392 525 360 558 q 327 591 274 591 q 215 591 178 552 q 141 512 141 449 q 141 347 263 347 q 325 347 358 380 q 392 412 392 471 z"},"j":{"x_min":0,"x_max":290,"ha":290,"o":"m 181 752 q 181 722 160 701 q 139 680 108 680 q 82 680 58 700 q 35 721 35 744 q 35 776 57 797 q 80 819 112 819 q 181 819 181 752 z m 208 323 q 208 120 152 5 q 98 -105 6 -105 q -41 -105 -75 -76 q -109 -47 -109 -13 q -109 7 -95 21 q -82 35 -62 35 q -39 35 -25 10 q -12 -15 2 -15 q 42 -15 75 68 q 110 160 110 298 q 110 358 100 438 q 90 517 90 535 q 90 586 133 586 q 176 586 192 523 q 208 466 208 323 z"},"i":{"x_min":0,"x_max":278,"ha":278,"o":"m 208 740 q 208 671 140 671 q 113 671 94 690 q 75 709 75 736 q 75 765 96 786 q 116 806 146 806 q 174 806 191 788 q 208 770 208 740 z m 187 554 q 187 260 166 119 q 158 62 147 43 q 134 17 105 17 q 85 17 72 30 q 58 43 58 61 q 58 59 66 95 q 75 136 81 188 q 89 262 89 354 q 89 394 88 438 q 87 483 87 487 q 87 553 98 579 q 110 607 142 607 q 187 607 187 554 z"},"y":{"x_min":0,"x_max":444,"ha":444,"o":"m 423 621 q 423 560 373 408 q 327 269 208 54 q 184 6 160 -42 q 139 -80 110 -80 q 93 -80 79 -65 q 65 -51 65 -33 q 65 -1 108 73 q 207 244 210 250 q 114 379 59 490 q 14 579 14 610 q 14 654 56 654 q 83 654 109 608 q 133 557 156 505 q 198 416 253 339 q 289 432 311 533 q 333 638 334 640 q 348 680 378 680 q 423 680 423 621 z"},"@":{"x_min":0,"x_max":1000,"ha":1000,"o":"m 947 403 q 947 256 884 175 q 822 95 715 95 q 624 95 579 165 q 530 104 457 104 q 383 104 343 152 q 302 201 302 291 q 302 399 359 466 q 417 533 510 533 q 564 533 611 498 q 626 525 650 525 q 688 525 688 495 q 688 497 665 415 q 642 333 642 253 q 642 208 659 190 q 676 171 717 171 q 788 171 828 228 q 868 285 868 391 q 868 525 771 601 q 673 677 499 677 q 323 677 225 583 q 128 489 128 320 q 128 154 229 57 q 331 -40 508 -40 q 634 -40 723 -5 q 728 -3 762 13 q 781 21 790 21 q 802 21 811 11 q 820 1 820 -13 q 820 -50 736 -81 q 643 -116 507 -116 q 289 -116 169 -1 q 49 113 49 320 q 49 521 167 635 q 286 750 494 750 q 708 750 828 658 q 947 566 947 403 z m 592 431 q 563 467 518 467 q 458 467 420 419 q 382 371 382 292 q 382 169 467 169 q 531 169 565 238 q 568 341 592 431 z"},".":{"x_min":0,"x_max":300,"ha":300,"o":"m 224 126 q 224 90 202 68 q 181 46 145 46 q 114 46 94 67 q 73 88 73 121 q 73 152 95 173 q 118 195 150 195 q 224 195 224 126 z"},"p":{"x_min":0,"x_max":593,"ha":593,"o":"m 563 315 q 563 190 489 115 q 414 41 289 41 q 219 41 153 72 q 142 -42 134 -69 q 122 -112 90 -112 q 69 -112 55 -99 q 41 -86 41 -68 q 41 -71 49 -6 q 59 70 64 159 q 72 286 72 433 q 72 462 71 500 q 70 538 70 546 q 70 611 115 611 q 163 611 164 566 l 165 536 q 224 593 317 593 q 428 593 495 519 q 563 443 563 315 z m 466 315 q 466 404 424 454 q 383 503 309 503 q 194 503 167 430 l 167 382 q 167 269 161 159 q 224 129 289 129 q 374 129 420 177 q 466 226 466 315 z"},"X":{"x_min":0,"x_max":737,"ha":737,"o":"m 732 771 q 732 673 645 547 q 577 448 468 378 q 585 218 650 83 q 704 -30 704 -82 q 704 -134 654 -134 q 629 -134 617 -114 q 610 -103 594 -53 q 535 131 372 339 q 242 244 139 59 q 104 -2 96 -54 q 90 -87 81 -99 q 70 -113 45 -113 q -3 -113 -3 -59 q -3 31 122 212 q 205 332 310 414 q 190 547 51 671 q 10 708 0 718 q -19 739 -19 756 q -19 773 -6 785 q 7 797 26 797 q 62 797 158 712 q 263 620 410 452 q 583 574 624 731 q 642 800 642 800 q 653 826 682 826 q 704 826 718 813 q 732 800 732 780 z"},"*":{"x_min":0,"x_max":430,"ha":430,"o":"m 435 540 q 435 517 409 517 q 404 517 395 518 q 386 518 383 518 q 329 518 272 488 q 288 460 313 440 q 333 426 354 412 q 380 394 380 374 q 380 361 366 350 q 352 340 333 340 q 293 340 211 447 q 167 425 131 387 q 109 361 87 335 q 72 320 58 320 q 26 320 26 362 q 26 385 58 418 q 94 456 157 489 q 33 557 33 601 q 33 635 70 635 q 89 635 113 611 q 149 575 168 563 q 164 607 152 650 q 141 688 141 691 q 141 717 169 717 q 242 717 242 551 q 323 590 369 590 q 397 590 416 575 q 435 561 435 540 z"},"Y":{"x_min":0,"x_max":679,"ha":679,"o":"m 725 748 q 725 711 655 606 q 523 407 352 278 l 353 277 l 353 216 q 353 173 354 113 q 354 52 354 34 q 354 -63 345 -96 q 333 -138 297 -138 q 252 -138 252 -62 q 252 -58 254 7 q 256 72 256 133 l 256 258 q 178 330 89 487 q -10 662 -10 747 q -10 800 39 800 q 69 800 79 779 q 86 764 96 722 q 108 675 118 649 q 182 481 303 353 q 472 491 597 709 q 616 742 635 775 q 651 800 673 800 q 694 800 710 784 q 725 769 725 748 z"},"c":{"x_min":0,"x_max":602,"ha":602,"o":"m 578 199 q 578 148 475 69 q 402 13 284 13 q 167 13 100 90 q 31 169 31 306 q 31 483 110 582 q 189 681 327 681 q 430 681 495 635 q 557 592 557 532 q 557 483 511 483 q 490 483 480 498 q 471 520 453 552 q 418 591 327 591 q 232 591 180 519 q 128 447 128 314 q 128 103 296 103 q 393 103 462 172 q 462 172 492 216 q 510 242 532 242 q 550 242 564 229 q 578 215 578 199 z"},"!":{"x_min":0,"x_max":250,"ha":250,"o":"m 220 670 q 220 656 198 571 q 165 443 158 294 q 155 227 152 216 q 146 190 118 190 q 90 190 79 222 q 69 252 69 325 q 69 454 119 622 q 144 706 188 706 q 220 706 220 670 z m 186 56 q 186 31 171 14 q 156 -2 133 -2 q 110 -2 94 15 q 78 31 78 56 q 78 80 94 95 q 109 111 133 111 q 156 111 171 96 q 186 81 186 56 z"},"/":{"x_min":0,"x_max":370,"ha":370,"o":"m 353 748 q 353 735 314 659 q 270 573 245 515 q 196 398 160 262 q 136 172 122 78 q 109 -3 107 -8 q 97 -35 88 -44 q 78 -56 58 -56 q 38 -56 25 -42 q 11 -28 11 -6 q 11 40 51 209 q 89 371 127 473 q 189 642 243 735 q 272 786 308 786 q 327 786 340 775 q 353 763 353 748 z"},"[":{"x_min":0,"x_max":450,"ha":450,"o":"m 420 680 q 420 638 325 638 l 216 638 q 180 426 180 197 q 180 31 201 -32 q 238 -42 283 -42 q 298 -42 320 -41 q 342 -39 349 -39 q 406 -39 406 -84 q 406 -114 376 -123 q 360 -128 321 -128 q 145 -128 122 -90 q 111 -72 102 1 q 90 92 90 214 q 90 413 112 568 q 129 687 142 702 q 163 726 310 726 q 362 726 379 722 q 420 713 420 680 z"},"6":{"x_min":0,"x_max":486,"ha":486,"o":"m 458 168 q 458 70 402 10 q 347 -49 255 -49 q 152 -49 97 36 q 42 121 42 282 q 42 490 112 609 q 181 725 296 725 q 371 725 420 668 q 447 637 447 613 q 447 594 428 579 q 409 565 386 565 q 371 565 360 581 q 323 637 284 637 q 227 637 190 561 q 150 481 144 336 q 188 386 263 386 q 348 386 403 324 q 458 262 458 168 z m 358 147 q 358 215 323 257 q 289 299 237 299 q 196 299 171 269 q 147 239 147 188 q 147 124 181 80 q 216 36 265 36 q 308 36 333 66 q 358 95 358 147 z"},"r":{"x_min":0,"x_max":447,"ha":447,"o":"m 431 487 q 431 468 420 456 q 409 443 393 443 q 381 443 358 460 q 335 477 317 477 q 271 477 242 436 q 213 396 213 326 l 213 262 q 213 155 190 92 q 169 33 136 33 q 92 33 92 77 q 92 86 105 142 q 119 198 119 247 q 119 384 80 466 q 79 468 53 515 q 40 539 40 553 q 40 569 55 583 q 70 596 88 596 q 140 596 174 469 q 225 567 322 567 q 371 567 401 544 q 431 521 431 487 z"},"2":{"x_min":0,"x_max":500,"ha":500,"o":"m 492 106 q 492 58 408 22 q 316 -17 170 -17 q 0 -17 0 47 q 0 68 25 87 q 59 109 92 131 q 210 215 263 289 q 321 370 321 464 q 321 575 237 585 q 133 516 89 516 q 46 516 46 554 q 46 575 82 607 q 158 675 267 675 q 420 675 420 472 q 420 252 160 79 q 201 73 227 73 q 282 73 363 109 q 391 122 419 136 q 444 147 456 147 q 492 147 492 106 z"},"{":{"x_min":0,"x_max":480,"ha":480,"o":"m 448 -120 q 448 -172 363 -172 q 267 -172 203 -115 q 139 -58 139 59 q 139 69 140 90 q 140 110 140 121 q 140 215 92 268 q 85 275 68 281 q 25 295 25 325 q 25 354 49 363 q 76 368 103 372 q 162 382 173 443 q 178 469 178 513 l 178 542 q 178 619 192 661 q 237 796 359 796 q 397 796 422 780 q 446 765 446 743 q 446 702 401 702 q 395 702 380 706 q 364 709 354 709 q 290 709 273 628 q 267 597 265 530 q 264 451 261 427 q 256 383 235 358 q 215 333 166 310 q 233 247 233 142 q 233 121 230 90 q 228 60 228 50 q 228 -14 265 -50 q 302 -85 368 -85 q 380 -85 395 -83 q 410 -81 412 -81 q 448 -81 448 -120 z"},"9":{"x_min":0,"x_max":525,"ha":525,"o":"m 486 409 q 486 149 230 -33 q 169 -76 127 -76 q 81 -76 81 -34 q 81 -18 99 -3 q 105 2 146 31 q 239 95 280 137 q 340 200 365 285 q 311 238 233 238 q 162 238 109 279 q 27 343 27 448 q 27 544 92 609 q 156 675 254 675 q 361 675 423 604 q 486 533 486 409 z m 382 454 q 382 513 346 550 q 310 587 251 587 q 198 587 163 548 q 128 509 128 450 q 128 397 165 359 q 202 320 249 320 q 302 320 342 360 q 382 400 382 454 z"}," ":{"x_min":0,"x_max":300,"ha":300,"o":""},"I":{"x_min":0,"x_max":397,"ha":397,"o":"m 389 -40 q 389 -81 342 -104 q 295 -128 209 -128 q 124 -128 77 -110 q 30 -91 30 -60 q 30 -9 78 -9 q 89 -9 111 -16 q 146 -26 155 -28 q 175 167 175 297 q 175 507 120 680 q 99 677 71 667 q 46 658 38 658 q 22 658 11 672 q 0 686 0 706 q 0 777 149 777 q 248 777 305 750 q 360 724 360 681 q 360 643 329 643 q 322 643 292 652 q 254 665 225 671 q 276 494 276 297 q 276 170 253 -29 q 272 -23 309 -8 q 335 3 348 3 q 365 3 377 -10 q 389 -22 389 -40 z"},"H":{"x_min":0,"x_max":860,"ha":860,"o":"m 776 731 q 776 747 770 603 q 764 459 764 300 q 764 180 766 75 q 767 -31 767 -17 q 767 -90 715 -90 q 685 -90 674 -69 q 666 -55 664 -21 q 662 13 662 92 l 662 308 q 603 307 499 307 q 307 307 200 312 q 195 197 195 93 q 195 62 195 26 q 196 -10 196 -14 q 196 -64 185 -84 q 173 -106 143 -106 q 114 -106 102 -85 q 91 -65 91 -19 q 91 76 97 321 q 64 337 64 362 q 64 396 100 405 q 108 542 122 716 q 132 778 180 778 q 228 778 228 719 q 228 714 221 626 q 211 517 205 406 q 260 404 377 404 q 526 404 663 412 q 667 668 672 727 q 678 797 726 797 q 776 797 776 731 z"},"4":{"x_min":0,"x_max":490,"ha":490,"o":"m 475 279 q 475 256 440 244 q 410 232 332 223 q 320 149 315 81 q 313 46 311 12 q 308 -23 298 -37 q 288 -52 262 -52 q 214 -52 214 14 q 214 29 238 221 q 18 239 18 329 q 18 372 52 475 q 72 535 117 601 q 173 683 213 683 q 255 683 255 653 q 255 639 237 613 q 216 583 194 552 q 128 458 121 336 q 175 307 248 307 l 255 307 q 317 563 352 616 q 361 630 383 630 q 410 630 427 618 q 444 605 444 588 q 444 575 415 500 q 375 401 351 317 q 375 320 403 327 q 427 333 431 333 q 475 333 475 279 z"},"~":{"x_min":0,"x_max":600,"ha":600,"o":"m 583 378 q 583 328 545 291 q 507 254 455 254 q 397 254 315 318 l 279 346 q 224 389 185 389 q 144 389 115 363 q 108 357 86 294 q 79 275 75 270 q 67 262 51 262 q 15 262 15 311 q 15 374 64 418 q 113 462 186 462 q 251 462 325 404 l 358 378 q 424 326 460 326 q 497 326 510 374 q 518 402 521 409 q 530 422 547 422 q 583 422 583 378 z"},"D":{"x_min":0,"x_max":900,"ha":900,"o":"m 870 353 q 870 -96 289 -96 q 239 -96 187 -92 q 173 -134 139 -134 q 120 -134 106 -123 q 93 -112 93 -97 q 93 -106 109 17 q 126 141 126 276 q 126 467 103 642 q 59 651 59 692 q 59 720 91 736 l 90 743 q 90 745 89 747 q 89 749 89 750 q 89 792 137 792 q 177 792 185 756 q 287 776 373 776 q 611 776 741 666 q 870 556 870 353 z m 766 348 q 766 510 665 595 q 564 680 372 680 q 304 680 199 660 q 224 467 224 277 q 224 135 206 3 q 229 1 270 1 q 489 1 595 49 q 766 126 766 348 z"},"^":{"x_min":0,"x_max":600,"ha":600,"o":"m 530 301 q 530 291 519 281 q 507 272 495 272 q 482 272 436 319 q 366 391 308 438 q 246 395 169 320 q 115 266 96 266 q 86 266 79 273 q 71 281 71 289 q 71 317 169 415 q 276 522 312 522 q 346 522 467 393 q 530 326 530 301 z"},"0":{"x_min":0,"x_max":600,"ha":600,"o":"m 569 360 q 569 199 494 102 q 419 5 295 5 q 172 5 98 83 q 24 161 24 295 q 24 453 110 550 q 197 648 325 648 q 438 648 503 571 q 569 495 569 360 z m 472 340 q 472 444 430 505 q 387 566 317 566 q 233 566 178 494 q 121 419 121 299 q 121 202 169 145 q 216 89 294 89 q 368 89 420 161 q 472 234 472 340 z"},"F":{"x_min":0,"x_max":550,"ha":550,"o":"m 605 670 q 605 626 545 626 q 553 626 438 639 q 321 653 193 654 q 210 572 213 424 q 234 423 271 423 q 333 423 391 428 q 449 433 445 433 q 500 433 500 384 q 500 341 410 330 q 384 327 278 327 l 213 327 q 209 87 198 7 q 184 -96 140 -96 q 94 -96 94 -49 q 94 -65 106 61 q 117 188 117 331 q 117 544 96 645 q 40 634 16 634 q -38 634 -38 684 q -38 749 234 749 q 409 749 532 727 q 605 714 605 670 z"},"`":{"x_min":0,"x_max":500,"ha":500,"o":"m 337 734 q 337 707 311 707 q 299 707 275 723 l 139 812 q 102 836 102 856 q 102 869 113 879 q 125 890 138 890 q 155 890 180 871 l 310 771 q 337 750 337 734 z"},"k":{"x_min":0,"x_max":570,"ha":570,"o":"m 550 594 q 550 564 486 531 q 394 487 301 443 q 416 326 480 234 q 537 152 537 115 q 537 94 523 79 q 509 64 491 64 q 472 64 457 87 q 421 145 353 248 q 304 316 224 389 q 196 415 195 416 q 180 434 180 458 q 180 480 211 497 q 254 516 297 535 q 338 555 430 607 q 485 639 503 639 q 550 639 550 594 z m 208 693 q 208 694 197 662 q 185 624 178 579 q 167 514 167 435 q 167 391 173 301 q 179 211 179 165 q 179 100 167 73 q 155 43 122 43 q 95 43 87 63 q 82 75 82 106 q 82 130 83 167 q 83 204 83 216 q 83 266 79 349 q 74 431 74 464 q 74 594 98 667 q 121 738 159 738 q 178 738 193 724 q 208 710 208 693 z"},"u":{"x_min":0,"x_max":645,"ha":645,"o":"m 585 48 q 585 24 571 8 q 557 -8 536 -8 q 498 -8 471 111 q 389 -2 271 -2 q 76 -2 76 309 q 76 469 97 587 q 110 660 159 660 q 177 660 190 647 q 203 634 203 616 q 203 601 189 495 q 175 390 175 299 q 175 90 290 90 q 365 90 408 148 q 452 206 452 311 l 452 340 q 452 503 460 550 q 472 616 515 616 q 556 616 556 559 q 556 549 552 485 q 548 421 548 368 q 548 244 566 138 q 585 33 585 48 z"},"]":{"x_min":0,"x_max":430,"ha":430,"o":"m 354 483 q 354 138 305 -63 q 289 -129 236 -129 q 187 -129 90 -79 q 35 -50 35 -31 q 35 14 69 14 q 82 14 125 -4 q 176 -25 216 -33 q 264 213 264 435 q 264 534 252 642 q 139 632 122 632 q 56 632 56 673 q 56 694 71 703 q 83 711 116 713 q 288 725 279 725 q 331 725 344 673 q 354 636 354 496 z"},"U":{"x_min":0,"x_max":858,"ha":858,"o":"m 833 727 q 833 684 792 684 q 782 684 757 693 q 775 544 775 431 q 775 151 670 5 q 565 -142 370 -142 q 228 -142 152 -60 q 76 22 76 178 q 76 440 223 673 l 198 670 q 196 670 193 669 q 190 669 189 669 q 149 669 149 709 q 149 783 309 783 q 369 783 413 754 q 454 727 454 697 q 454 679 440 664 q 425 649 408 649 q 396 649 375 663 q 349 679 335 683 q 173 444 173 179 q 173 -46 365 -46 q 678 -46 678 419 q 678 580 658 691 q 638 683 616 683 q 599 683 586 698 q 573 712 573 733 q 573 761 613 779 q 655 799 721 799 q 772 799 802 779 q 833 758 833 727 z"},"o":{"x_min":0,"x_max":614,"ha":614,"o":"m 585 355 q 585 211 501 126 q 417 41 277 41 q 161 41 95 120 q 29 200 29 341 q 29 489 108 571 q 187 652 325 652 q 441 652 513 570 q 585 489 585 355 z m 488 354 q 488 452 440 508 q 393 563 310 563 q 126 563 126 342 q 126 240 166 185 q 206 130 281 130 q 377 130 433 189 q 488 248 488 354 z"},"N":{"x_min":0,"x_max":875,"ha":875,"o":"m 817 734 q 817 714 803 633 q 787 535 779 459 q 759 255 759 124 q 759 88 762 34 q 766 -20 766 -37 q 766 -103 713 -103 q 679 -103 641 -68 q 609 -39 557 33 q 375 283 230 595 q 179 412 170 90 q 166 -49 164 -59 q 157 -106 118 -106 q 80 -106 68 -55 q 64 -34 64 27 q 64 290 130 616 q 148 707 167 743 q 189 786 225 786 q 248 786 263 759 q 264 758 298 681 q 464 305 661 68 l 661 104 q 661 409 707 673 q 718 736 731 762 q 746 791 770 791 q 817 791 817 734 z"},"+":{"x_min":0,"x_max":550,"ha":550,"o":"m 510 284 q 510 249 467 249 q 457 249 417 256 q 357 268 320 273 q 308 140 303 121 q 293 73 262 73 q 226 73 226 122 q 226 125 232 174 q 239 229 242 285 q 169 290 96 293 q 48 299 48 330 q 48 368 104 368 q 164 368 249 359 q 253 431 258 503 q 265 550 297 550 q 336 550 336 496 q 336 490 333 448 q 331 396 329 348 q 442 332 466 325 q 510 312 510 284 z"},"G":{"x_min":0,"x_max":834,"ha":834,"o":"m 830 288 q 830 270 815 254 q 800 239 782 239 q 770 239 748 252 q 718 270 704 275 q 697 208 697 142 q 697 65 708 0 q 719 -65 719 -57 q 719 -75 705 -88 q 691 -100 672 -100 q 616 -100 605 49 q 524 -109 352 -109 q 204 -109 116 -3 q 27 104 27 291 q 27 515 145 639 q 264 764 473 764 q 583 764 663 729 q 736 696 736 659 q 736 640 722 625 q 708 610 691 610 q 680 610 661 620 q 628 636 624 638 q 555 667 475 667 q 310 667 221 571 q 132 475 132 294 q 132 146 193 65 q 253 -14 361 -14 q 461 -14 521 62 q 581 137 610 293 q 565 302 534 302 q 498 302 454 289 q 410 277 401 277 q 384 277 371 292 q 358 307 358 326 q 358 358 409 378 q 464 400 558 400 q 674 400 756 362 q 830 328 830 288 z"},"q":{"x_min":0,"x_max":640,"ha":640,"o":"m 584 398 q 584 381 573 347 q 559 301 555 282 q 532 171 532 20 q 532 -48 545 -93 q 557 -138 557 -130 q 557 -147 542 -162 q 527 -176 508 -176 q 437 -176 437 20 q 437 69 440 110 q 381 30 273 30 q 160 30 97 93 q 34 156 34 271 q 34 428 118 526 q 210 633 354 633 q 435 633 494 603 q 549 575 549 540 q 549 523 537 512 q 526 500 510 500 q 503 500 453 521 q 403 543 358 543 q 262 543 200 471 q 135 397 135 279 q 135 119 286 119 q 391 119 438 227 q 461 281 475 342 q 489 407 490 409 q 506 450 538 450 q 584 450 584 398 z"},"d":{"x_min":0,"x_max":645,"ha":645,"o":"m 579 739 q 579 742 573 666 q 567 577 562 478 q 557 334 557 172 q 557 139 558 104 q 558 69 558 67 q 558 -6 512 -6 q 462 -6 462 76 q 462 95 463 106 q 371 15 249 15 q 147 15 88 81 q 29 146 29 261 q 29 417 115 514 q 201 610 341 610 q 406 610 475 580 q 479 715 484 742 q 495 792 538 792 q 579 792 579 739 z m 470 485 q 406 525 342 525 q 242 525 185 456 q 127 388 127 270 q 127 189 166 145 q 205 100 273 100 q 359 100 404 157 q 417 176 429 196 q 443 216 464 220 q 464 357 470 485 z"},"1":{"x_min":0,"x_max":460,"ha":460,"o":"m 434 51 q 434 -11 267 -11 q 29 -11 29 70 q 29 108 66 108 q 74 108 104 101 q 139 93 165 90 q 246 369 246 558 l 246 565 q 124 508 73 508 q 38 508 38 552 q 38 577 56 590 q 66 597 108 611 q 134 620 219 651 q 268 670 286 670 q 346 670 346 566 q 346 404 263 83 q 271 82 287 82 q 318 82 353 92 q 388 101 393 101 q 434 101 434 51 z"},"5":{"x_min":0,"x_max":495,"ha":495,"o":"m 459 229 q 459 113 386 41 q 313 -32 198 -32 q 113 -32 60 9 q 6 50 6 111 q 6 132 20 146 q 34 160 52 160 q 64 160 73 148 q 75 146 93 116 q 130 56 196 56 q 271 56 316 100 q 360 144 360 219 q 360 302 315 359 q 270 417 207 417 q 171 417 131 401 q 92 385 83 385 q 45 385 45 426 q 45 551 81 653 q 97 697 166 697 q 266 697 360 661 q 416 640 416 612 q 416 593 398 578 q 380 564 354 564 q 330 564 276 583 q 221 601 193 601 q 192 601 168 599 q 144 551 144 491 q 190 504 229 504 q 330 504 394 428 q 459 352 459 229 z"}}}
